<svg width="30" height="40" viewBox="0 0 30 40" fill="none" xmlns="http://www.w3.org/2000/svg">
<path d="M15 0C23.2708 0 30 5.98149 30 13.3334C30 15.5404 29.3792 17.7287 28.1991 19.6696L15.8203 39.5703C15.6555 39.8356 15.3415 40 15 40C14.6585 40 14.3445 39.8356 14.1797 39.5703L1.7963 19.663C0.620771 17.7287 1.90735e-06 15.5403 1.90735e-06 13.3333C1.90735e-06 5.98148 6.72916 0 15 0ZM3.44153 18.8631L15 37.4447L26.5539 18.8705C27.582 17.1794 28.1249 15.2645 28.1249 13.3334C28.1249 6.90023 22.2372 1.66672 15 1.66672C7.76284 1.66672 1.87506 6.90031 1.87506 13.3334C1.87506 15.2645 2.41796 17.1794 3.44153 18.8631Z" fill="#E5E5DA"/>
<path d="M15 6.66662C19.1354 6.66662 22.4999 9.65732 22.4999 13.3333C22.4999 17.0093 19.1354 20 15 20C10.8646 20 7.50003 17.0093 7.50003 13.3333C7.50003 9.6574 10.8646 6.66662 15 6.66662ZM15 18.3333C18.1018 18.3333 20.625 16.0905 20.625 13.3333C20.625 10.5761 18.1018 8.33333 15 8.33333C11.8982 8.33333 9.375 10.5761 9.375 13.3333C9.375 16.0904 11.8982 18.3333 15 18.3333Z" fill="#E5E5DA"/>
</svg>
