<svg width="20" height="12" viewBox="0 0 20 12" fill="none" xmlns="http://www.w3.org/2000/svg">
<path d="M3.53327 1.48334L9.99994 7.95001L16.4666 1.48334C16.6209 1.32904 16.8041 1.20664 17.0057 1.12313C17.2073 1.03963 17.4234 0.996643 17.6416 0.996643C17.8598 0.996643 18.0759 1.03963 18.2775 1.12313C18.4791 1.20664 18.6623 1.32904 18.8166 1.48334C18.9709 1.63765 19.0933 1.82083 19.1768 2.02244C19.2603 2.22405 19.3033 2.44013 19.3033 2.65834C19.3033 2.87656 19.2603 3.09264 19.1768 3.29425C19.0933 3.49586 18.9709 3.67904 18.8166 3.83334L11.1666 11.4833C11.0124 11.6378 10.8293 11.7604 10.6276 11.8441C10.426 11.9277 10.2099 11.9708 9.99161 11.9708C9.77332 11.9708 9.55719 11.9277 9.35557 11.8441C9.15394 11.7604 8.97079 11.6378 8.81661 11.4833L1.16661 3.83334C1.0121 3.67915 0.88952 3.49601 0.805885 3.29438C0.722249 3.09276 0.679199 2.87662 0.679199 2.65834C0.679199 2.44006 0.722249 2.22393 0.805885 2.0223C0.88952 1.82068 1.0121 1.63753 1.16661 1.48334C1.81661 0.850011 2.88327 0.833344 3.53327 1.48334Z" fill="#E5E5DA"/>
</svg>
