<svg width="291" height="337" viewBox="0 0 291 337" fill="none" xmlns="http://www.w3.org/2000/svg">
<path d="M290.657 281.312V273.437H265.109V178.937C265.109 170.734 259.206 164.062 251.948 164.062H226.401V91.4375C226.401 83.2344 220.498 76.5625 213.24 76.5625H187.693V14.875C187.693 6.67188 181.79 0 174.532 0H116.469C109.211 0 103.308 6.67188 103.308 14.875V76.5625H77.7608C70.5029 76.5625 64.5999 83.2344 64.5999 91.4375V164.062H39.0524C31.7946 164.062 25.8915 170.734 25.8915 178.937V273.437H0.343994V281.323H142.017V328.125H97.115V336.011H193.886V328.125H148.984V281.312H290.657ZM71.5674 115.412C73.4254 116.55 75.506 117.25 77.7608 117.25C81.5832 117.25 85.0283 115.402 87.4379 112.448C92.2474 118.355 101.983 118.355 106.792 112.448C111.602 118.355 121.337 118.355 126.146 112.448C130.956 118.355 140.691 118.355 145.5 112.448C150.32 118.366 160.045 118.355 164.855 112.448C169.674 118.355 179.39 118.355 184.209 112.448C189.028 118.355 198.744 118.355 203.563 112.448C205.973 115.402 209.408 117.25 213.24 117.25C215.485 117.25 217.575 116.55 219.433 115.423V164.062H71.5674V115.412ZM110.276 38.85C112.134 39.9875 114.214 40.6875 116.469 40.6875C120.292 40.6875 123.737 38.8391 126.146 35.8859C130.956 41.7922 140.691 41.7922 145.5 35.8859C150.32 41.8031 160.045 41.7922 164.855 35.8859C167.264 38.8391 170.7 40.6875 174.532 40.6875C176.777 40.6875 178.867 39.9875 180.725 38.8609V76.5625H110.276V38.85ZM110.276 14.875C110.276 11.0141 113.053 7.875 116.469 7.875H174.532C177.948 7.875 180.725 11.0141 180.725 14.875V25.8125C180.725 29.6734 177.948 32.8125 174.532 32.8125C171.116 32.8125 168.338 29.6734 168.338 25.8125C168.338 23.6359 166.78 21.875 164.855 21.875C162.929 21.875 161.371 23.6359 161.371 25.8125C161.371 29.6734 158.594 32.8125 155.178 32.8125C151.762 32.8125 148.984 29.6734 148.984 25.8125C148.984 23.6359 147.426 21.875 145.5 21.875C143.575 21.875 142.017 23.6359 142.017 25.8125C142.017 29.6734 139.239 32.8125 135.823 32.8125C132.407 32.8125 129.63 29.6734 129.63 25.8125C129.63 23.6359 128.072 21.875 126.146 21.875C124.221 21.875 122.663 23.6359 122.663 25.8125C122.663 29.6734 119.885 32.8125 116.469 32.8125C113.053 32.8125 110.276 29.6734 110.276 25.8125V14.875ZM71.5674 91.4375C71.5674 87.5766 74.3447 84.4375 77.7608 84.4375H213.24C216.656 84.4375 219.433 87.5766 219.433 91.4375V102.375C219.433 106.236 216.656 109.375 213.24 109.375C209.824 109.375 207.047 106.236 207.047 102.375C207.047 100.198 205.489 98.4375 203.563 98.4375C201.637 98.4375 200.079 100.198 200.079 102.375C200.079 106.236 197.302 109.375 193.886 109.375C190.47 109.375 187.693 106.236 187.693 102.375C187.693 100.198 186.135 98.4375 184.209 98.4375C182.283 98.4375 180.725 100.198 180.725 102.375C180.725 106.236 177.948 109.375 174.532 109.375C171.116 109.375 168.338 106.236 168.338 102.375C168.338 100.198 166.78 98.4375 164.855 98.4375C162.929 98.4375 161.371 100.198 161.371 102.375C161.371 106.236 158.594 109.375 155.178 109.375C151.762 109.375 148.984 106.236 148.984 102.375C148.984 100.198 147.426 98.4375 145.5 98.4375C143.575 98.4375 142.017 100.198 142.017 102.375C142.017 106.236 139.239 109.375 135.823 109.375C132.407 109.375 129.63 106.236 129.63 102.375C129.63 100.198 128.072 98.4375 126.146 98.4375C124.221 98.4375 122.663 100.198 122.663 102.375C122.663 106.236 119.885 109.375 116.469 109.375C113.053 109.375 110.276 106.236 110.276 102.375C110.276 100.198 108.718 98.4375 106.792 98.4375C104.866 98.4375 103.308 100.198 103.308 102.375C103.308 106.236 100.531 109.375 97.115 109.375C93.6989 109.375 90.9216 106.236 90.9216 102.375C90.9216 100.198 89.3636 98.4375 87.4379 98.4375C85.5121 98.4375 83.9541 100.198 83.9541 102.375C83.9541 106.236 81.1768 109.375 77.7608 109.375C74.3447 109.375 71.5674 106.236 71.5674 102.375V91.4375ZM32.859 178.937C32.859 175.077 35.6364 171.938 39.0524 171.938H251.948C255.365 171.938 258.142 175.077 258.142 178.937V200.812C258.142 204.673 255.365 207.812 251.948 207.812C248.532 207.812 245.755 204.673 245.755 200.812C245.755 198.636 244.197 196.875 242.271 196.875C240.346 196.875 238.788 198.636 238.788 200.812C238.788 204.673 236.01 207.812 232.594 207.812C229.178 207.812 226.401 204.673 226.401 200.812C226.401 198.636 224.843 196.875 222.917 196.875C220.991 196.875 219.433 198.636 219.433 200.812C219.433 204.673 216.656 207.812 213.24 207.812C209.824 207.812 207.047 204.673 207.047 200.812C207.047 198.636 205.489 196.875 203.563 196.875C201.637 196.875 200.079 198.636 200.079 200.812C200.079 204.673 197.302 207.812 193.886 207.812C190.47 207.812 187.693 204.673 187.693 200.812C187.693 198.636 186.135 196.875 184.209 196.875C182.283 196.875 180.725 198.636 180.725 200.812C180.725 204.673 177.948 207.812 174.532 207.812C171.116 207.812 168.338 204.673 168.338 200.812C168.338 198.636 166.78 196.875 164.855 196.875C162.929 196.875 161.371 198.636 161.371 200.812C161.371 204.673 158.594 207.812 155.178 207.812C151.762 207.812 148.984 204.673 148.984 200.812C148.984 198.636 147.426 196.875 145.5 196.875C143.575 196.875 142.017 198.636 142.017 200.812C142.017 204.673 139.239 207.812 135.823 207.812C132.407 207.812 129.63 204.673 129.63 200.812C129.63 198.636 128.072 196.875 126.146 196.875C124.221 196.875 122.663 198.636 122.663 200.812C122.663 204.673 119.885 207.812 116.469 207.812C113.053 207.812 110.276 204.673 110.276 200.812C110.276 198.636 108.718 196.875 106.792 196.875C104.866 196.875 103.308 198.636 103.308 200.812C103.308 204.673 100.531 207.812 97.115 207.812C93.6989 207.812 90.9216 204.673 90.9216 200.812C90.9216 198.636 89.3636 196.875 87.4379 196.875C85.5121 196.875 83.9541 198.636 83.9541 200.812C83.9541 204.673 81.1768 207.812 77.7608 207.812C74.3447 207.812 71.5674 204.673 71.5674 200.812C71.5674 198.636 70.0094 196.875 68.0837 196.875C66.1579 196.875 64.5999 198.636 64.5999 200.812C64.5999 204.673 61.8226 207.812 58.4066 207.812C54.9906 207.812 52.2132 204.673 52.2132 200.812C52.2132 198.636 50.6552 196.875 48.7295 196.875C46.8037 196.875 45.2457 198.636 45.2457 200.812C45.2457 204.673 42.4684 207.812 39.0524 207.812C35.6364 207.812 32.859 204.673 32.859 200.812V178.937ZM32.859 273.437V213.861C34.717 214.988 36.7976 215.687 39.0524 215.687C42.8748 215.687 46.3199 213.828 48.7295 210.886C53.539 216.781 63.2742 216.781 68.0837 210.886C72.8932 216.781 82.6283 216.781 87.4379 210.886C92.2474 216.781 101.983 216.781 106.792 210.886C111.602 216.781 121.337 216.781 126.146 210.886C130.956 216.781 140.691 216.781 145.5 210.886C150.32 216.792 160.045 216.781 164.855 210.886C169.674 216.781 179.39 216.781 184.209 210.886C189.028 216.781 198.744 216.781 203.563 210.886C208.382 216.781 218.098 216.781 222.917 210.886C227.736 216.781 237.452 216.781 242.271 210.886C244.681 213.839 248.116 215.687 251.948 215.687C254.194 215.687 256.284 214.988 258.142 213.861V273.437H32.859Z" fill="#E5E5DA"/>
</svg>
