<svg width="51" height="51" viewBox="0 0 51 51" fill="none" xmlns="http://www.w3.org/2000/svg">
<g clip-path="url(#clip0_55534_195)">
<g filter="url(#filter0_d_55534_195)">
<path d="M23.7046 10.8836L23.7437 10.7633L23.5452 11.0195C23.3749 11.2102 23.2343 11.168 23.114 11.0195C23.114 11.0195 22.0624 9.81173 22.8859 8.40547C23.339 7.47422 25.1265 5.25858 26.0672 4.56482C27.7672 3.48512 28.864 4.3148 28.864 4.3148C29 4.41636 29.1 4.5648 29 4.7023L28.7343 4.97574C31.9421 5.6179 32.414 8.11633 32.6234 9.22258L32.6577 9.40539L33.089 12.4054C33.2265 13.4523 32.6577 14.0195 31.6577 14.0195L28.3952 14.0195C27.2577 14.0351 24.889 14.0648 23.7046 10.8836Z" fill="#5C3728"/>
<path d="M34.2045 9.18367L34.5529 11.6087L45.5967 21.8243C46.0158 22.1743 46.3291 22.6342 46.5014 23.1524C46.5679 23.3458 46.6155 23.5452 46.6436 23.7477L46.6436 24.5446C46.2201 24.579 45.7311 24.5446 45.1982 24.4259L10.2545 14.4009C10.1383 14.3675 10.0159 14.3615 9.89694 14.3835C9.77802 14.4055 9.66582 14.4548 9.56918 14.5275C9.47254 14.6002 9.3941 14.6943 9.34004 14.8025C9.28597 14.9107 9.25776 15.0299 9.25762 15.1509L9.25762 22.7227C9.25685 22.8904 9.31029 23.0539 9.40996 23.1888C9.50963 23.3236 9.65021 23.4227 9.81074 23.4712C16.4982 25.4868 43.0842 33.4977 43.7373 33.6743C44.4764 33.8774 46.1123 34.1837 46.6436 34.1149L46.6436 39.0134C46.167 39.079 45.6717 39.0602 45.1982 38.9337L10.2561 28.8165C10.1397 28.7828 10.0172 28.7767 9.89803 28.7985C9.7789 28.8203 9.66648 28.8695 9.56965 28.9423C9.47282 29.015 9.39422 29.1093 9.34007 29.2176C9.28592 29.3259 9.25769 29.4454 9.25762 29.5665L9.25762 36.8352L8.0795 36.4977L8.06856 36.4946L8.00293 36.4727C7.62037 36.3468 7.25218 36.1807 6.90449 35.9774C6.19668 35.5555 6.13262 35.2696 6.13262 35.2337L6.13262 14.8837C6.13262 14.543 6.27324 13.9399 6.64356 13.3571C6.99043 12.8102 7.48262 12.368 8.12793 12.154L21.0295 9.12898C21.0865 8.61426 21.2493 8.11687 21.5076 7.66804C21.8248 7.04148 22.4498 6.18367 23.0529 5.44617L7.35449 9.12585C7.31766 9.13492 7.28118 9.14534 7.24512 9.1571C5.73731 9.62585 4.67637 10.6259 4.00606 11.6821C3.34981 12.7134 3.00762 13.8899 3.00762 14.8837L3.00762 35.2337C3.00762 37.0774 4.48106 38.1712 5.30918 38.6634C5.88907 39.0049 6.50609 39.2791 7.14824 39.4805L7.18887 39.493L7.20293 39.4962L7.20762 39.4977C7.20762 39.4977 7.43575 39.5634 7.21075 39.4977L45.3482 50.4446C45.3705 50.4509 45.3929 50.4566 45.4154 50.4618C46.5295 50.7274 47.7951 50.6571 48.7279 49.704C49.5639 48.8509 49.7686 47.6337 49.7686 46.5477L49.7686 23.6805L49.767 23.5962L49.767 23.5727L49.7623 23.5384C49.753 23.399 49.7358 23.2602 49.7107 23.1227C49.667 22.8696 49.5904 22.5274 49.4561 22.1352C49.1124 21.1203 48.5059 20.2145 47.6982 19.5102L33.017 5.9321C33.0505 5.98006 33.0833 6.0285 33.1154 6.07742C33.8279 7.18054 34.0451 8.3321 34.1514 8.89617L34.1576 8.93367C34.1724 9.01716 34.188 9.1005 34.2045 9.18367Z" fill="#5C3728"/>
</g>
</g>
<defs>
<filter id="filter0_d_55534_195" x="3.00781" y="4.01025" width="54.7607" height="54.5854" filterUnits="userSpaceOnUse" color-interpolation-filters="sRGB">
<feFlood flood-opacity="0" result="BackgroundImageFix"/>
<feColorMatrix in="SourceAlpha" type="matrix" values="0 0 0 0 0 0 0 0 0 0 0 0 0 0 0 0 0 0 127 0" result="hardAlpha"/>
<feOffset dx="4" dy="4"/>
<feGaussianBlur stdDeviation="2"/>
<feComposite in2="hardAlpha" operator="out"/>
<feColorMatrix type="matrix" values="0 0 0 0 0 0 0 0 0 0 0 0 0 0 0 0 0 0 0.25 0"/>
<feBlend mode="normal" in2="BackgroundImageFix" result="effect1_dropShadow_55534_195"/>
<feBlend mode="normal" in="SourceGraphic" in2="effect1_dropShadow_55534_195" result="shape"/>
</filter>
<clipPath id="clip0_55534_195">
<rect width="50" height="50" fill="white" transform="matrix(-0.999994 0.00333289 0.00333289 0.999994 49.9995 0)"/>
</clipPath>
</defs>
</svg>
