<svg width="39" height="38" viewBox="0 0 39 38" fill="none" xmlns="http://www.w3.org/2000/svg">
<g filter="url(#filter0_d_55569_280)">
<path d="M16.9637 5.70692L16.995 5.61067L16.8362 5.81567C16.7 5.96817 16.5875 5.93443 16.4912 5.81568C16.4912 5.81568 15.65 4.84943 16.3087 3.72443C16.6713 2.97943 18.1013 1.20691 18.8538 0.651907C20.2138 -0.211854 21.0913 0.451888 21.0913 0.451888C21.2 0.533137 21.28 0.651886 21.2 0.761887L20.9875 0.980639C23.5538 1.49437 23.9313 3.49311 24.0987 4.37811L24.1262 4.52436L24.4712 6.92436C24.5812 7.76186 24.1262 8.21561 23.3262 8.21562L20.7162 8.21564C19.8062 8.22815 17.9112 8.25191 16.9637 5.70692Z" fill="#E5E5DA"/>
<path d="M25.3637 4.34693L25.6424 6.28693L34.4774 14.4594C34.8128 14.7394 35.0634 15.1074 35.2012 15.5219C35.2544 15.6766 35.2925 15.8361 35.3149 15.9982L35.3149 16.6357C34.9762 16.6632 34.5849 16.6357 34.1587 16.5407L6.20369 8.52068C6.1107 8.49398 6.01278 8.48923 5.91765 8.50681C5.82251 8.52438 5.73275 8.56381 5.65544 8.62197C5.57813 8.68014 5.51538 8.75545 5.47213 8.842C5.42887 8.92854 5.4063 9.02394 5.40619 9.12068L5.40619 15.1782C5.40558 15.3123 5.44833 15.4431 5.52806 15.551C5.6078 15.6589 5.72026 15.7381 5.84869 15.7769C11.1987 17.3894 32.4674 23.7982 32.9899 23.9394C33.5812 24.1019 34.8899 24.3469 35.3149 24.2919L35.3149 28.2107C34.9337 28.2632 34.5374 28.2482 34.1587 28.1469L6.20494 20.0532C6.11187 20.0263 6.01382 20.0213 5.91852 20.0388C5.82322 20.0563 5.73328 20.0956 5.65582 20.1538C5.57835 20.212 5.51547 20.2874 5.47215 20.3741C5.42883 20.4608 5.40625 20.5563 5.40619 20.6532L5.40619 26.4682L4.46369 26.1982L4.45494 26.1957L4.40244 26.1782C4.09639 26.0774 3.80184 25.9446 3.52369 25.7819C2.95744 25.4444 2.90619 25.2157 2.90619 25.1869L2.90619 8.90693C2.90619 8.63443 3.01869 8.15193 3.31494 7.68568C3.59244 7.24818 3.98619 6.89443 4.50244 6.72318L14.8237 4.30318C14.8693 3.89141 14.9995 3.4935 15.2062 3.13443C15.4599 2.63318 15.9599 1.94693 16.4424 1.35693L3.88369 4.30068C3.85423 4.30794 3.82504 4.31628 3.79619 4.32568C2.58994 4.70068 1.74119 5.50068 1.20494 6.34568C0.679941 7.17068 0.406191 8.11193 0.406191 8.90693L0.406191 25.1869C0.406191 26.6619 1.58494 27.5369 2.24744 27.9307C2.71135 28.2039 3.20497 28.4233 3.71869 28.5844L3.75119 28.5944L3.76244 28.5969L3.76619 28.5982C3.76619 28.5982 3.94869 28.6507 3.76869 28.5982L34.2787 37.3557C34.2965 37.3607 34.3144 37.3653 34.3324 37.3694C35.2237 37.5819 36.2362 37.5257 36.9824 36.7632C37.6512 36.0807 37.8149 35.1069 37.8149 34.2382L37.8149 15.9444L37.8137 15.8769L37.8137 15.8582L37.8099 15.8307C37.8025 15.7192 37.7887 15.6081 37.7687 15.4982C37.7337 15.2957 37.6724 15.0219 37.5649 14.7082C37.29 13.8962 36.8048 13.1716 36.1587 12.6082L24.4137 1.74568C24.4405 1.78404 24.4668 1.8228 24.4924 1.86193C25.0624 2.74443 25.2362 3.66568 25.3212 4.11693L25.3262 4.14693C25.338 4.21373 25.3505 4.2804 25.3637 4.34693Z" fill="#E5E5DA"/>
</g>
<defs>
<filter id="filter0_d_55569_280" x="0.40625" y="0.208252" width="45.4087" height="45.2683" filterUnits="userSpaceOnUse" color-interpolation-filters="sRGB">
<feFlood flood-opacity="0" result="BackgroundImageFix"/>
<feColorMatrix in="SourceAlpha" type="matrix" values="0 0 0 0 0 0 0 0 0 0 0 0 0 0 0 0 0 0 127 0" result="hardAlpha"/>
<feOffset dx="4" dy="4"/>
<feGaussianBlur stdDeviation="2"/>
<feComposite in2="hardAlpha" operator="out"/>
<feColorMatrix type="matrix" values="0 0 0 0 0 0 0 0 0 0 0 0 0 0 0 0 0 0 0.25 0"/>
<feBlend mode="normal" in2="BackgroundImageFix" result="effect1_dropShadow_55569_280"/>
<feBlend mode="normal" in="SourceGraphic" in2="effect1_dropShadow_55569_280" result="shape"/>
</filter>
</defs>
</svg>
