<svg width="35" height="35" viewBox="0 0 35 35" fill="none" xmlns="http://www.w3.org/2000/svg">
<path d="M24.459 12.8516C25.5057 12.3291 26.3454 11.4687 26.8423 10.4096C27.3391 9.35057 27.464 8.1548 27.1967 7.01593C26.9293 5.87705 26.2855 4.86172 25.3693 4.13431C24.4531 3.4069 23.3183 3.00998 22.1484 3.00781H12.8516C11.6817 3.00998 10.5469 3.4069 9.63071 4.13431C8.71454 4.86172 8.07067 5.87705 7.80335 7.01593C7.53603 8.1548 7.6609 9.35057 8.15775 10.4096C8.6546 11.4687 9.49433 12.3291 10.541 12.8516C9.67301 13.2791 8.94204 13.9411 8.43088 14.7626C7.91972 15.5842 7.6488 16.5324 7.6488 17.5C7.6488 18.4676 7.91972 19.4158 8.43088 20.2374C8.94204 21.0589 9.67301 21.7209 10.541 22.1484C9.71166 22.5603 9.00743 23.1863 8.50123 23.9616C7.99504 24.737 7.70528 25.6336 7.66195 26.5586C7.61863 27.4836 7.82331 28.4033 8.2548 29.2226C8.6863 30.0419 9.32893 30.731 10.1162 31.2186C10.9034 31.7061 11.8067 31.9744 12.7324 31.9956C13.6581 32.0169 14.5727 31.7903 15.3815 31.3394C16.1903 30.8884 16.8639 30.2296 17.3325 29.4309C17.8011 28.6322 18.0477 27.7229 18.0469 26.7969V20.6855C18.5247 21.3042 19.136 21.8071 19.8352 22.1567C20.5344 22.5063 21.3035 22.6936 22.0852 22.7046C22.8668 22.7157 23.6409 22.5502 24.3497 22.2205C25.0585 21.8908 25.6838 21.4054 26.1789 20.8005C26.674 20.1955 27.0263 19.4867 27.2094 18.7267C27.3925 17.9667 27.4017 17.1752 27.2364 16.4111C27.0711 15.6471 26.7355 14.9302 26.2546 14.3139C25.7737 13.6976 25.1599 13.1977 24.459 12.8516ZM26.25 8.20312C26.25 9.29093 25.8179 10.3342 25.0487 11.1034C24.2795 11.8726 23.2362 12.3047 22.1484 12.3047H18.0469V4.10156H22.1484C23.2351 4.10517 24.2763 4.53845 25.0447 5.30686C25.8131 6.07528 26.2464 7.11643 26.25 8.20312ZM18.9629 13.3984C18.6244 13.6687 18.3171 13.9759 18.0469 14.3145V13.3984H18.9629ZM8.75001 8.20312C8.75362 7.11643 9.1869 6.07528 9.95531 5.30686C10.7237 4.53845 11.7649 4.10517 12.8516 4.10156H16.9531V12.3047H12.8516C11.7638 12.3047 10.7205 11.8726 9.95133 11.1034C9.18214 10.3342 8.75001 9.29093 8.75001 8.20312ZM12.8516 30.8984C11.7638 30.8984 10.7205 30.4663 9.95133 29.6971C9.18214 28.9279 8.75001 27.8847 8.75001 26.7969C8.75001 25.7091 9.18214 24.6658 9.95133 23.8966C10.7205 23.1274 11.7638 22.6953 12.8516 22.6953H16.9531V26.7969C16.9495 27.8836 16.5162 28.9247 15.7478 29.6931C14.9794 30.4615 13.9383 30.8948 12.8516 30.8984ZM16.9531 21.6016H12.8516C11.7638 21.6016 10.7205 21.1694 9.95133 20.4002C9.18214 19.6311 8.75001 18.5878 8.75001 17.5C8.75001 16.4122 9.18214 15.3689 9.95133 14.5998C10.7205 13.8306 11.7638 13.3984 12.8516 13.3984H16.9531V21.6016ZM22.1484 21.6016C21.0606 21.6016 20.0174 21.1694 19.2482 20.4002C18.479 19.6311 18.0469 18.5878 18.0469 17.5C18.0469 16.4122 18.479 15.3689 19.2482 14.5998C20.0174 13.8306 21.0606 13.3984 22.1484 13.3984C23.2362 13.3984 24.2795 13.8306 25.0487 14.5998C25.8179 15.3689 26.25 16.4122 26.25 17.5C26.25 18.5878 25.8179 19.6311 25.0487 20.4002C24.2795 21.1694 23.2362 21.6016 22.1484 21.6016Z" fill="#DAB8A3"/>
</svg>
