<svg width="35" height="35" viewBox="0 0 35 35" fill="none" xmlns="http://www.w3.org/2000/svg">
<path d="M18.9874 2.91699C21.6124 2.91699 22.167 2.94652 23.5079 3.00449C25.0534 3.07777 26.1187 3.32496 27.0374 3.69027C27.9999 4.05449 28.817 4.56527 29.6187 5.36699C30.4357 6.16871 30.9312 6.98574 31.3107 7.94824C31.6749 8.86699 31.909 9.93121 31.9812 11.492C32.0545 12.8778 32.0687 13.417 32.0687 16.334V18.667C32.0687 21.584 32.0545 22.1232 31.9812 23.509C31.956 24.7832 31.7121 25.9918 31.2856 27.1118L31.3096 27.0386C30.9301 28.0011 30.4346 28.8181 29.6329 29.6198C28.8159 30.4368 27.9999 30.9323 27.0374 31.3118C26.1187 31.6761 25.0545 31.9101 23.5079 31.9823C22.1221 32.0556 21.5687 32.0698 18.6517 32.0698H16.3329C13.4159 32.0698 12.8767 32.0556 11.4767 31.9823C10.2024 31.9571 8.99385 31.7132 7.87385 31.2867L7.94713 31.3107C6.9376 30.9247 6.07682 30.3548 5.36697 29.634L5.36588 29.6329C4.63744 28.9198 4.06213 28.0536 3.69025 27.0856L3.67385 27.0364C3.27244 25.9907 3.02854 24.7811 3.00338 23.5178V23.5068C2.94541 22.3671 2.9126 21.0317 2.9126 19.6896C2.9126 19.4425 2.91369 19.1953 2.91588 18.9492V18.9864V15.9971C2.91588 13.3721 2.94541 12.8176 3.00338 11.4767C3.07666 9.93121 3.32385 8.8659 3.67385 7.94715C4.05338 6.98465 4.54885 6.16762 5.36588 5.3659C6.07135 4.63637 6.93432 4.06434 7.9001 3.70449L7.94713 3.68918C8.99166 3.2834 10.2003 3.03402 11.4635 3.00449H11.4767C12.8187 2.94652 13.3721 2.91699 15.9971 2.91699H18.9874ZM19.017 5.54199H15.9687C13.4454 5.54199 12.9062 5.57152 11.5937 5.62949C10.1795 5.68746 9.40619 5.92152 8.89541 6.12496C8.20963 6.38746 7.72838 6.70793 7.21869 7.21871C6.709 7.72949 6.38744 8.21074 6.12494 8.89543C5.93572 9.40621 5.68744 10.1784 5.62947 11.6079C5.5715 12.9204 5.54197 13.4454 5.54197 15.9829V19.0159C5.54197 21.5534 5.5715 22.0784 5.62947 23.3909C5.68744 24.8051 5.9215 25.5784 6.12494 26.0892C6.38744 26.775 6.70791 27.2562 7.21869 27.7659C7.72947 28.2756 8.21072 28.5971 8.89541 28.8596C9.40619 29.0642 10.1784 29.2971 11.6079 29.3551C13.0221 29.4284 13.5329 29.4426 16.6829 29.4426H18.3017C21.4659 29.4426 21.9624 29.4284 23.3909 29.3551C24.8051 29.2971 25.5784 29.0631 26.0892 28.8596C26.7749 28.5971 27.2562 28.2767 27.7659 27.7659C28.2756 27.2551 28.5971 26.7739 28.8596 26.0892C29.0642 25.5784 29.2971 24.8062 29.3551 23.3909C29.4284 21.9614 29.4426 21.4659 29.4426 18.3017V16.6971C29.4426 13.5329 29.4284 13.0221 29.3551 11.5926C29.2971 10.1784 29.0631 9.40512 28.8596 8.89434C28.6124 8.23699 28.2395 7.6759 27.767 7.21871L27.7659 7.21762C27.3065 6.74402 26.7465 6.37105 26.1198 6.13371L26.0892 6.12387C25.2885 5.82199 24.3632 5.64152 23.3963 5.6284H23.3909C22.2665 5.57152 20.9507 5.53871 19.6262 5.53871C19.4118 5.53871 19.1974 5.5398 18.9831 5.5409H19.0159L19.017 5.54199ZM17.4999 10.0045C21.6354 10.0045 24.9888 13.3568 24.9888 17.4934C24.9888 21.63 21.6365 24.9823 17.4999 24.9823C13.3645 24.9823 10.011 21.63 10.011 17.4934C10.011 13.3568 13.3634 10.0045 17.4999 10.0045ZM17.4999 12.6295C14.8137 12.6295 12.636 14.8071 12.636 17.4934C12.636 20.1796 14.8137 22.3573 17.4999 22.3573C20.1862 22.3573 22.3638 20.1796 22.3638 17.4934C22.3638 14.8071 20.1862 12.6295 17.4999 12.6295ZM25.2732 7.96246C26.2401 7.96246 27.0232 8.74559 27.0232 9.71246C27.0232 10.6793 26.2401 11.4625 25.2732 11.4625C24.3063 11.4625 23.5232 10.6793 23.5232 9.71246C23.5232 8.74559 24.3063 7.96246 25.2732 7.96246Z" fill="#DAB8A3"/>
</svg>
