<svg width="35" height="35" viewBox="0 0 35 35" fill="none" xmlns="http://www.w3.org/2000/svg">
<path d="M5.83341 29.1667C5.03133 29.1667 4.34494 28.8814 3.77425 28.3107C3.20258 27.739 2.91675 27.0521 2.91675 26.25V8.75004C2.91675 7.94796 3.20258 7.26157 3.77425 6.69087C4.34494 6.11921 5.03133 5.83337 5.83341 5.83337H29.1667C29.9688 5.83337 30.6557 6.11921 31.2274 6.69087C31.7981 7.26157 32.0834 7.94796 32.0834 8.75004V26.25C32.0834 27.0521 31.7981 27.739 31.2274 28.3107C30.6557 28.8814 29.9688 29.1667 29.1667 29.1667H5.83341ZM29.1667 11.6667L18.2657 18.4844C18.1442 18.5573 18.0163 18.6118 17.8822 18.6477C17.749 18.6847 17.6216 18.7032 17.5001 18.7032C17.3786 18.7032 17.2512 18.6847 17.118 18.6477C16.9838 18.6118 16.856 18.5573 16.7345 18.4844L5.83341 11.6667V26.25H29.1667V11.6667ZM17.5001 16.0417L29.1667 8.75004H5.83341L17.5001 16.0417ZM5.83341 12.0313V9.88025V9.91671V9.89775V12.0313Z" fill="#E5E5DA"/>
</svg>
