<svg width="30" height="30" viewBox="0 0 30 30" fill="none" xmlns="http://www.w3.org/2000/svg">
<path d="M25.3125 5.625V24.375C25.3125 24.8723 25.115 25.3492 24.7633 25.7008C24.4117 26.0525 23.9348 26.25 23.4375 26.25H18.75C18.2527 26.25 17.7758 26.0525 17.4242 25.7008C17.0725 25.3492 16.875 24.8723 16.875 24.375V5.625C16.875 5.12772 17.0725 4.65081 17.4242 4.29917C17.7758 3.94754 18.2527 3.75 18.75 3.75H23.4375C23.9348 3.75 24.4117 3.94754 24.7633 4.29917C25.115 4.65081 25.3125 5.12772 25.3125 5.625ZM11.25 3.75H6.5625C6.06522 3.75 5.58831 3.94754 5.23667 4.29917C4.88504 4.65081 4.6875 5.12772 4.6875 5.625V24.375C4.6875 24.8723 4.88504 25.3492 5.23667 25.7008C5.58831 26.0525 6.06522 26.25 6.5625 26.25H11.25C11.7473 26.25 12.2242 26.0525 12.5758 25.7008C12.9275 25.3492 13.125 24.8723 13.125 24.375V5.625C13.125 5.12772 12.9275 4.65081 12.5758 4.29917C12.2242 3.94754 11.7473 3.75 11.25 3.75Z" fill="#E5E5DA"/>
</svg>
