<svg width="70" height="70" viewBox="0 0 70 70" fill="none" xmlns="http://www.w3.org/2000/svg">
<path d="M6.5 35C6.5 50.7111 19.2889 63.5 35 63.5C50.7111 63.5 63.5 50.7111 63.5 35C63.5 19.2889 50.7111 6.5 35 6.5C19.2889 6.5 6.5 19.2889 6.5 35ZM21.7974 3.12616C25.9832 1.39237 30.4694 0.5 35 0.5C39.5306 0.5 44.0168 1.39237 48.2026 3.12616C52.3883 4.85994 56.1916 7.4012 59.3952 10.6048C62.5988 13.8084 65.1401 17.6117 66.8738 21.7974C68.6076 25.9832 69.5 30.4694 69.5 35C69.5 44.15 65.8652 52.9252 59.3952 59.3952C52.9252 65.8652 44.15 69.5 35 69.5C30.4694 69.5 25.9832 68.6076 21.7974 66.8738C17.6117 65.1401 13.8084 62.5988 10.6048 59.3952C4.13481 52.9252 0.5 44.15 0.5 35C0.5 25.85 4.13481 17.0748 10.6048 10.6048C13.8084 7.4012 17.6117 4.85994 21.7974 3.12616ZM28.5 20.25L48.1667 35L28.5 49.75V20.25Z" fill="#E5E5DA" stroke="#2A1811"/>
<circle cx="35" cy="35" r="35" fill="#BFBFBF" fill-opacity="0.45"/>
</svg>
