<svg width="291" height="337" viewBox="0 0 291 337" fill="none" xmlns="http://www.w3.org/2000/svg">
<path d="M290.99 281.312V273.437H265.442V178.937C265.442 170.734 259.539 164.062 252.281 164.062H226.734V91.4375C226.734 83.2344 220.831 76.5625 213.573 76.5625H188.026V14.875C188.026 6.67188 182.123 0 174.865 0H116.802C109.544 0 103.641 6.67188 103.641 14.875V76.5625H78.0938C70.8359 76.5625 64.9329 83.2344 64.9329 91.4375V164.062H39.3854C32.1276 164.062 26.2245 170.734 26.2245 178.937V273.437H0.677002V281.323H142.35V328.125H97.448V336.011H194.219V328.125H149.317V281.312H290.99ZM71.9004 115.412C73.7584 116.55 75.839 117.25 78.0938 117.25C81.9162 117.25 85.3613 115.402 87.7709 112.448C92.5804 118.355 102.316 118.355 107.125 112.448C111.935 118.355 121.67 118.355 126.479 112.448C131.289 118.355 141.024 118.355 145.833 112.448C150.653 118.366 160.378 118.355 165.188 112.448C170.007 118.355 179.723 118.355 184.542 112.448C189.361 118.355 199.077 118.355 203.896 112.448C206.306 115.402 209.741 117.25 213.573 117.25C215.818 117.25 217.908 116.55 219.766 115.423V164.062H71.9004V115.412ZM110.609 38.85C112.467 39.9875 114.547 40.6875 116.802 40.6875C120.625 40.6875 124.07 38.8391 126.479 35.8859C131.289 41.7922 141.024 41.7922 145.833 35.8859C150.653 41.8031 160.378 41.7922 165.188 35.8859C167.597 38.8391 171.033 40.6875 174.865 40.6875C177.11 40.6875 179.2 39.9875 181.058 38.8609V76.5625H110.609V38.85ZM110.609 14.875C110.609 11.0141 113.386 7.875 116.802 7.875H174.865C178.281 7.875 181.058 11.0141 181.058 14.875V25.8125C181.058 29.6734 178.281 32.8125 174.865 32.8125C171.449 32.8125 168.671 29.6734 168.671 25.8125C168.671 23.6359 167.113 21.875 165.188 21.875C163.262 21.875 161.704 23.6359 161.704 25.8125C161.704 29.6734 158.927 32.8125 155.511 32.8125C152.095 32.8125 149.317 29.6734 149.317 25.8125C149.317 23.6359 147.759 21.875 145.833 21.875C143.908 21.875 142.35 23.6359 142.35 25.8125C142.35 29.6734 139.572 32.8125 136.156 32.8125C132.74 32.8125 129.963 29.6734 129.963 25.8125C129.963 23.6359 128.405 21.875 126.479 21.875C124.554 21.875 122.995 23.6359 122.995 25.8125C122.995 29.6734 120.218 32.8125 116.802 32.8125C113.386 32.8125 110.609 29.6734 110.609 25.8125V14.875ZM71.9004 91.4375C71.9004 87.5766 74.6777 84.4375 78.0938 84.4375H213.573C216.989 84.4375 219.766 87.5766 219.766 91.4375V102.375C219.766 106.236 216.989 109.375 213.573 109.375C210.157 109.375 207.38 106.236 207.38 102.375C207.38 100.198 205.822 98.4375 203.896 98.4375C201.97 98.4375 200.412 100.198 200.412 102.375C200.412 106.236 197.635 109.375 194.219 109.375C190.803 109.375 188.026 106.236 188.026 102.375C188.026 100.198 186.468 98.4375 184.542 98.4375C182.616 98.4375 181.058 100.198 181.058 102.375C181.058 106.236 178.281 109.375 174.865 109.375C171.449 109.375 168.671 106.236 168.671 102.375C168.671 100.198 167.113 98.4375 165.188 98.4375C163.262 98.4375 161.704 100.198 161.704 102.375C161.704 106.236 158.927 109.375 155.511 109.375C152.095 109.375 149.317 106.236 149.317 102.375C149.317 100.198 147.759 98.4375 145.833 98.4375C143.908 98.4375 142.35 100.198 142.35 102.375C142.35 106.236 139.572 109.375 136.156 109.375C132.74 109.375 129.963 106.236 129.963 102.375C129.963 100.198 128.405 98.4375 126.479 98.4375C124.554 98.4375 122.995 100.198 122.995 102.375C122.995 106.236 120.218 109.375 116.802 109.375C113.386 109.375 110.609 106.236 110.609 102.375C110.609 100.198 109.051 98.4375 107.125 98.4375C105.199 98.4375 103.641 100.198 103.641 102.375C103.641 106.236 100.864 109.375 97.448 109.375C94.0319 109.375 91.2546 106.236 91.2546 102.375C91.2546 100.198 89.6966 98.4375 87.7709 98.4375C85.8451 98.4375 84.2871 100.198 84.2871 102.375C84.2871 106.236 81.5098 109.375 78.0938 109.375C74.6777 109.375 71.9004 106.236 71.9004 102.375V91.4375ZM33.192 178.937C33.192 175.077 35.9694 171.938 39.3854 171.938H252.281C255.698 171.938 258.475 175.077 258.475 178.937V200.812C258.475 204.673 255.698 207.812 252.281 207.812C248.865 207.812 246.088 204.673 246.088 200.812C246.088 198.636 244.53 196.875 242.604 196.875C240.679 196.875 239.121 198.636 239.121 200.812C239.121 204.673 236.343 207.812 232.927 207.812C229.511 207.812 226.734 204.673 226.734 200.812C226.734 198.636 225.176 196.875 223.25 196.875C221.324 196.875 219.766 198.636 219.766 200.812C219.766 204.673 216.989 207.812 213.573 207.812C210.157 207.812 207.38 204.673 207.38 200.812C207.38 198.636 205.822 196.875 203.896 196.875C201.97 196.875 200.412 198.636 200.412 200.812C200.412 204.673 197.635 207.812 194.219 207.812C190.803 207.812 188.026 204.673 188.026 200.812C188.026 198.636 186.468 196.875 184.542 196.875C182.616 196.875 181.058 198.636 181.058 200.812C181.058 204.673 178.281 207.812 174.865 207.812C171.449 207.812 168.671 204.673 168.671 200.812C168.671 198.636 167.113 196.875 165.188 196.875C163.262 196.875 161.704 198.636 161.704 200.812C161.704 204.673 158.927 207.812 155.511 207.812C152.095 207.812 149.317 204.673 149.317 200.812C149.317 198.636 147.759 196.875 145.833 196.875C143.908 196.875 142.35 198.636 142.35 200.812C142.35 204.673 139.572 207.812 136.156 207.812C132.74 207.812 129.963 204.673 129.963 200.812C129.963 198.636 128.405 196.875 126.479 196.875C124.554 196.875 122.995 198.636 122.995 200.812C122.995 204.673 120.218 207.812 116.802 207.812C113.386 207.812 110.609 204.673 110.609 200.812C110.609 198.636 109.051 196.875 107.125 196.875C105.199 196.875 103.641 198.636 103.641 200.812C103.641 204.673 100.864 207.812 97.448 207.812C94.0319 207.812 91.2546 204.673 91.2546 200.812C91.2546 198.636 89.6966 196.875 87.7709 196.875C85.8451 196.875 84.2871 198.636 84.2871 200.812C84.2871 204.673 81.5098 207.812 78.0938 207.812C74.6777 207.812 71.9004 204.673 71.9004 200.812C71.9004 198.636 70.3424 196.875 68.4167 196.875C66.4909 196.875 64.9329 198.636 64.9329 200.812C64.9329 204.673 62.1556 207.812 58.7396 207.812C55.3236 207.812 52.5462 204.673 52.5462 200.812C52.5462 198.636 50.9882 196.875 49.0625 196.875C47.1367 196.875 45.5787 198.636 45.5787 200.812C45.5787 204.673 42.8014 207.812 39.3854 207.812C35.9694 207.812 33.192 204.673 33.192 200.812V178.937ZM33.192 273.437V213.861C35.05 214.988 37.1306 215.688 39.3854 215.688C43.2078 215.688 46.6529 213.828 49.0625 210.886C53.872 216.781 63.6072 216.781 68.4167 210.886C73.2262 216.781 82.9613 216.781 87.7709 210.886C92.5804 216.781 102.316 216.781 107.125 210.886C111.935 216.781 121.67 216.781 126.479 210.886C131.289 216.781 141.024 216.781 145.833 210.886C150.653 216.792 160.378 216.781 165.188 210.886C170.007 216.781 179.723 216.781 184.542 210.886C189.361 216.781 199.077 216.781 203.896 210.886C208.715 216.781 218.431 216.781 223.25 210.886C228.069 216.781 237.785 216.781 242.604 210.886C245.014 213.839 248.449 215.688 252.281 215.688C254.527 215.688 256.617 214.988 258.475 213.861V273.437H33.192Z" fill="#E5E5DA"/>
</svg>
