<svg width="85" height="85" viewBox="0 0 85 85" fill="none" xmlns="http://www.w3.org/2000/svg">
<g clip-path="url(#clip0_55534_458)">
<path d="M18.7625 0C12.1257 0.00129455 6.72656 5.40131 6.72656 12.0376V72.9628C6.72656 79.5995 12.1257 84.9996 18.7629 85.0004H75.5766C77.0662 85.0004 78.2736 83.793 78.2736 82.3034V72.9628V63.6222V21.3783V2.69699C78.2736 1.20739 77.0662 0 75.5766 0H18.7625ZM18.7629 5.39398H72.8796V21.3783V60.9247H18.7625C16.3084 60.9252 14.0253 61.6652 12.1205 62.9309V12.0376C12.1205 8.3749 15.1006 5.39441 18.7629 5.39398ZM72.8796 79.606H18.7633C15.1006 79.6056 12.1205 76.6251 12.1205 72.9624C12.1205 69.2996 15.1002 66.3191 18.7629 66.3187H72.8796V70.2654H30.4139C28.9243 70.2654 27.7169 71.4728 27.7169 72.9624C27.7169 74.452 28.9243 75.6594 30.4139 75.6594H72.8796V79.606Z" fill="#DAB8A3"/>
<path d="M31.7149 37.8441V48.0555C31.7149 49.5452 32.9223 50.7525 34.4119 50.7525H50.5878C52.0774 50.7525 53.2847 49.5452 53.2847 48.0555V37.8445C56.8482 36.4141 59.3182 32.9196 59.3182 28.9255C59.3182 23.7753 55.246 19.559 50.1528 19.3268C48.3572 16.9509 45.5597 15.5333 42.5002 15.5333C39.4395 15.5333 36.6424 16.9509 34.8473 19.3268C29.7536 19.559 25.6814 23.7758 25.6814 28.9255C25.6814 32.9201 28.1518 36.4141 31.7149 37.8441ZM35.2904 24.7109C35.4945 24.7109 35.7021 24.726 35.9088 24.7562C37.0679 24.9275 38.2015 24.3307 38.7189 23.2812C39.4356 21.8296 40.8851 20.9273 42.5011 20.9273C44.1167 20.9273 45.5662 21.8296 46.2838 23.2821C46.8016 24.3315 47.9404 24.9266 49.0943 24.7562C49.2997 24.726 49.5068 24.7109 49.7109 24.7109C52.0351 24.7109 53.926 26.6018 53.926 28.9259C53.926 31.0425 52.3453 32.8394 50.2494 33.1052C48.9022 33.2761 47.8921 34.4226 47.8921 35.7806V45.3586H37.1089V35.9588C37.1089 35.9558 37.1093 35.9523 37.1093 35.9497C37.1986 34.5288 36.1677 33.283 34.7554 33.1047C32.6573 32.8402 31.0754 31.0438 31.0754 28.9255C31.0754 26.6013 32.9663 24.7109 35.2904 24.7109Z" fill="#DAB8A3"/>
</g>
<defs>
<clipPath id="clip0_55534_458">
<rect width="85" height="85" fill="white"/>
</clipPath>
</defs>
</svg>
