<svg width="85" height="85" viewBox="0 0 85 85" fill="none" xmlns="http://www.w3.org/2000/svg">
<path d="M60.0543 61.4403C57.7619 61.4403 55.8967 63.3055 55.8967 65.5979C55.8967 67.8903 57.7619 69.7555 60.0543 69.7555C62.3467 69.7555 64.2119 67.8903 64.2119 65.5979C64.2119 63.3055 62.3467 61.4403 60.0543 61.4403ZM60.0543 66.9838C59.2901 66.9838 58.6685 66.3622 58.6685 65.5979C58.6685 64.8336 59.2901 64.212 60.0543 64.212C60.8186 64.212 61.4402 64.8336 61.4402 65.5979C61.4402 66.3622 60.8186 66.9838 60.0543 66.9838Z" fill="#DAB8A3"/>
<path d="M41.576 68.8315C39.2836 68.8315 37.4185 70.6967 37.4185 72.9891C37.4185 75.2815 39.2836 77.1467 41.576 77.1467C43.8685 77.1467 45.7336 75.2815 45.7336 72.9891C45.7336 70.6967 43.8685 68.8315 41.576 68.8315ZM41.576 74.375C40.8118 74.375 40.1902 73.7534 40.1902 72.9891C40.1902 72.2249 40.8118 71.6033 41.576 71.6033C42.3403 71.6033 42.9619 72.2249 42.9619 72.9891C42.9619 73.7534 42.3403 74.375 41.576 74.375Z" fill="#DAB8A3"/>
<path d="M30.4891 60.5164C28.1967 60.5164 26.3315 62.3815 26.3315 64.6739C26.3315 66.9664 28.1967 68.8315 30.4891 68.8315C32.7815 68.8315 34.6467 66.9664 34.6467 64.6739C34.6467 62.3815 32.7815 60.5164 30.4891 60.5164ZM30.4891 66.0598C29.7249 66.0598 29.1033 65.4382 29.1033 64.6739C29.1033 63.9097 29.7249 63.2881 30.4891 63.2881C31.2534 63.2881 31.875 63.9097 31.875 64.6739C31.875 65.4382 31.2534 66.0598 30.4891 66.0598Z" fill="#DAB8A3"/>
<path d="M23.0979 70.6793C20.8055 70.6793 18.9403 72.5445 18.9403 74.8369C18.9403 77.1293 20.8055 78.9945 23.0979 78.9945C25.3903 78.9945 27.2555 77.1293 27.2555 74.8369C27.2555 72.5445 25.3903 70.6793 23.0979 70.6793ZM23.0979 76.2228C22.3336 76.2228 21.712 75.6012 21.712 74.8369C21.712 74.0727 22.3336 73.451 23.0979 73.451C23.8622 73.451 24.4838 74.0727 24.4838 74.8369C24.4838 75.6012 23.8622 76.2228 23.0979 76.2228Z" fill="#DAB8A3"/>
<path d="M70.7203 15.4322H59.5934C61.1301 14.9216 62.5499 14.2278 63.4559 13.2863C66.1338 10.5022 66.479 3.31532 66.5209 1.90303C66.5364 1.38176 66.331 0.878048 65.9549 0.51643C65.5789 0.154812 65.0667 -0.0308934 64.5474 0.0045847C63.1377 0.101226 55.9699 0.724679 53.2916 3.50897C52.9978 3.81442 52.7336 4.17529 52.4932 4.57331C52.2672 4.24514 52.0253 3.94543 51.7646 3.6847C48.9151 0.834994 41.5486 0.120258 40.1008 0.00606296C39.5624 -0.0379151 39.0311 0.159062 38.6488 0.541376C38.2665 0.923689 38.0708 1.45438 38.1135 1.99339C38.2277 3.44116 38.9424 10.8077 41.7921 13.6574C42.5118 14.3771 43.5198 14.9601 44.6475 15.432H34.5143C34.8933 14.7038 35.1089 13.8773 35.1089 13.0012C35.1089 10.701 32.4205 7.10593 31.2647 5.66704C30.9142 5.23058 30.3842 4.97651 29.8242 4.97651C29.2643 4.97651 28.7343 5.23058 28.3836 5.66704C27.2276 7.10593 24.5392 10.701 24.5392 13.0012C24.5392 13.8774 24.7549 14.7038 25.1338 15.432H22.9098C23.2888 14.7038 23.5044 13.8773 23.5044 13.0012C23.5044 10.701 20.8161 7.10593 19.6601 5.66704C19.3095 5.2304 18.7794 4.97651 18.2195 4.97651C17.6594 4.97651 17.1297 5.23058 16.7789 5.66704C15.6231 7.10593 12.9347 10.701 12.9347 13.0012C12.9347 13.9303 13.1766 14.8036 13.5994 15.563C12.9159 15.8341 12.4318 16.4999 12.4318 17.28V83.152C12.4318 84.1723 13.2592 84.9998 14.2796 84.9998H70.7199C71.7403 84.9998 72.5677 84.1723 72.5677 83.152V17.28C72.5681 16.2597 71.7406 15.4322 70.7203 15.4322ZM29.824 9.95046C30.7241 11.2959 31.3856 12.5326 31.4131 13.0014C31.4131 13.8776 30.7004 14.5905 29.824 14.5905C28.9496 14.5905 28.2376 13.8806 28.2347 13.0069C28.2648 12.5304 28.9256 11.294 29.824 9.95046ZM16.1276 27.5252H18.3551C22.4987 27.5252 25.8697 30.8962 25.8697 35.0398V40.46C25.8697 43.5166 28.3564 46.0034 31.4131 46.0034C34.4698 46.0034 36.9566 43.5166 36.9566 40.46V33.0687C36.9566 32.0498 37.7855 31.2209 38.8044 31.2209H68.8724V53.6985L63.0601 55.1281C61.4043 55.5356 59.6535 55.5354 57.9978 55.1281L54.9271 54.3729C52.6939 53.8236 50.3327 53.8239 48.0995 54.3729L45.0304 55.1279C43.3742 55.5354 41.6236 55.5354 39.9676 55.1279L36.8985 54.3731C34.6653 53.8238 32.3039 53.8238 30.0703 54.3731L27.0018 55.1279C25.3454 55.5354 23.5948 55.5354 21.939 55.1279L16.1283 53.6985V27.5252H16.1276ZM68.8717 27.5252H38.8036C35.747 27.5252 33.2602 30.012 33.2602 33.0687V40.46C33.2602 41.4789 32.4313 42.3078 31.4124 42.3078C30.3935 42.3078 29.5645 41.4789 29.5645 40.46V35.0398C29.5645 28.8584 24.5357 23.8296 18.3544 23.8296H16.1268V19.128H68.8715L68.8717 27.5252ZM55.9543 6.07097C56.9342 5.05227 59.9979 4.29725 62.6824 3.919C62.4095 6.61423 61.7744 9.70267 60.7917 10.7243C59.8122 11.7427 56.7493 12.4975 54.065 12.8761C54.3392 10.1789 54.9746 7.0893 55.9543 6.07097ZM42.0647 3.95818C44.8645 4.38687 48.0666 5.21395 49.1507 6.29807C49.7795 6.92669 50.3213 8.26821 50.7496 9.8298C50.5271 11.0695 50.3976 12.2532 50.3228 13.1871C47.8542 12.7261 45.3429 11.9825 44.4047 11.0442C43.3203 9.96007 42.4935 6.7578 42.0647 3.95818ZM18.2191 9.95046C19.1192 11.2959 19.7807 12.5326 19.8083 13.0014C19.8083 13.8776 19.0954 14.5905 18.2189 14.5905C17.3446 14.5905 16.6328 13.8806 16.6298 13.0069C16.6601 12.5302 17.3209 11.2938 18.2191 9.95046ZM16.127 81.3043V57.5044L21.055 58.7168C23.2886 59.2661 25.6498 59.2661 27.8834 58.7168L30.9519 57.9619C32.6081 57.5545 34.3587 57.5545 36.0147 57.9619L39.0838 58.7168C41.3169 59.2661 43.6782 59.2661 45.912 58.7168L48.9811 57.9618C50.6367 57.5543 52.3875 57.5543 54.0433 57.9618L57.114 58.717C58.2307 58.9914 59.3791 59.1288 60.5277 59.1288C61.6763 59.1288 62.8249 58.9916 63.9417 58.717L68.8715 57.5044V81.3043H16.127Z" fill="#DAB8A3"/>
</svg>
