<svg width="85" height="85" viewBox="0 0 85 85" fill="none" xmlns="http://www.w3.org/2000/svg">
<path d="M44.2001 5.09998C43.7492 5.10002 43.3168 5.27914 42.998 5.59794C42.6792 5.91675 42.5001 6.34912 42.5 6.79998V13.0853L35.9856 22.857L35.9823 22.8603C35.9612 22.8928 35.9413 22.9261 35.9225 22.9599C35.911 22.9807 35.8999 23.0018 35.8893 23.023C35.8859 23.0319 35.8826 23.0407 35.8793 23.0496C35.8315 23.1442 35.7926 23.2432 35.7631 23.3451C35.7609 23.3539 35.7586 23.3628 35.7565 23.3717C35.7463 23.4101 35.7374 23.4488 35.7299 23.4879C35.7199 23.5384 35.7121 23.5894 35.7067 23.6406C35.7067 23.645 35.7067 23.6495 35.7067 23.6539C35.7024 23.7025 35.7002 23.7512 35.7001 23.8C35.7 23.8066 35.7 23.8133 35.7001 23.8199V34H8.50005C8.04919 34 7.61682 34.1791 7.29802 34.4979C6.97921 34.8167 6.80009 35.2491 6.80005 35.7V76.5C6.80009 76.9508 6.97921 77.3832 7.29802 77.702C7.61682 78.0208 8.04919 78.1999 8.50005 78.2H24.2682C25.5686 79.6835 27.1356 80.8683 28.8602 81.6465C33.2484 83.6265 38.9235 83.1757 43.4131 79.7207C43.6572 79.8428 43.9272 79.9042 44.2001 79.9H66.3H76.5001C76.9509 79.8999 77.3833 79.7208 77.7021 79.402C78.0209 79.0832 78.2 78.6508 78.2001 78.2V23.8C78.2001 23.536 78.1387 23.2757 78.0208 23.0396L73.1001 13.1982V6.79998C73.1 6.34912 72.9209 5.91675 72.6021 5.59794C72.2833 5.27914 71.8509 5.10002 71.4 5.09998H44.2001ZM45.9001 8.49998H69.7001V11.9H45.9001V8.49998ZM45.1098 15.3H68.6508L65.2508 22.1H40.5776L45.1098 15.3ZM71.4 17.4017L74.8 24.2017V76.5H68V24.2017L71.4 17.4017ZM39.1 25.5H64.6001V76.5H46.5442C47.3227 75.4539 48.0312 74.2864 48.6293 72.9605C50.7068 68.3565 51.4133 63.0131 50.7776 58.3013C50.1419 53.5896 48.1287 49.3072 44.2399 47.5535C43.2677 47.1148 42.256 46.8712 41.2217 46.7898C40.5223 46.7348 39.8131 46.7658 39.1 46.8529V35.7V25.5ZM10.2 37.4H35.7001V47.6C35.7004 47.6465 35.7026 47.6931 35.7067 47.7394C34.3919 48.2537 33.0961 48.9378 31.8584 49.7648C27.9053 52.4064 24.3634 56.4733 22.286 61.0771C19.9844 66.1778 20.2683 71.0025 22.0469 74.8H10.2V37.4ZM40.9096 50.1965C41.608 50.2404 42.2583 50.3912 42.842 50.6547C45.177 51.7077 46.8642 54.7267 47.4075 58.7529C47.9507 62.7792 47.3148 67.6106 45.5315 71.5627C42 79.3907 34.9964 80.6867 30.2581 78.5486C25.5195 76.4105 21.8526 70.301 25.3838 62.475C27.1672 58.5227 30.3696 54.8511 33.7477 52.5937C35.4368 51.4651 37.1255 50.7165 38.685 50.3824C39.4648 50.2154 40.2112 50.1525 40.9096 50.1965Z" fill="#DAB8A3"/>
</svg>
