<svg width="85" height="85" viewBox="0 0 85 85" fill="none" xmlns="http://www.w3.org/2000/svg">
<g clip-path="url(#clip0_55534_441)">
<path d="M65.5208 50.4688V24.7917C65.5208 23.8524 65.1477 22.9515 64.4835 22.2873C63.8193 21.6231 62.9185 21.25 61.9792 21.25C61.0399 21.25 60.139 21.6231 59.4748 22.2873C58.8106 22.9515 58.4375 23.8524 58.4375 24.7917V50.4688C58.4375 51.4081 58.8106 52.3089 59.4748 52.9731C60.139 53.6373 61.0399 54.0104 61.9792 54.0104C62.9185 54.0104 63.8193 53.6373 64.4835 52.9731C65.1477 52.3089 65.5208 51.4081 65.5208 50.4688Z" fill="#DAB8A3"/>
<path d="M53.3019 69.4166C50.7318 71.4576 47.5526 72.5797 44.2707 72.6041H41.0832C33.1144 72.6041 25.6769 66.5833 25.1457 59.677L23.0207 33.2916C22.9764 32.8256 22.8403 32.373 22.62 31.96C22.3998 31.547 22.0999 31.1817 21.7376 30.8853C21.3753 30.5889 20.9579 30.3672 20.5094 30.2331C20.061 30.0991 19.5904 30.0552 19.1249 30.1041C18.6589 30.1483 18.2063 30.2845 17.7933 30.5048C17.3802 30.725 17.0149 31.0249 16.7185 31.3872C16.4221 31.7495 16.2005 32.1669 16.0664 32.6154C15.9323 33.0638 15.8884 33.5344 15.9374 33.9999L18.0624 60.2083C18.9478 70.8333 29.5728 79.6874 41.0832 79.6874H44.2707C49.2515 79.6559 54.0685 77.9043 57.9061 74.7291C58.6044 74.1147 59.033 73.2503 59.0992 72.3225C59.1655 71.3948 58.8641 70.4782 58.2603 69.7708C57.9704 69.4036 57.6072 69.101 57.1938 68.8821C56.7803 68.6632 56.3258 68.533 55.8593 68.4997C55.3927 68.4663 54.9243 68.5307 54.4839 68.6885C54.0436 68.8464 53.641 69.0944 53.3019 69.4166Z" fill="#DAB8A3"/>
<path d="M51.3542 42.5C52.2935 42.5 53.1943 42.1269 53.8585 41.4627C54.5227 40.7985 54.8958 39.8976 54.8958 38.9583V14.1667C54.8958 13.2274 54.5227 12.3265 53.8585 11.6623C53.1943 10.9981 52.2935 10.625 51.3542 10.625C50.4149 10.625 49.514 10.9981 48.8498 11.6623C48.1856 12.3265 47.8125 13.2274 47.8125 14.1667V38.9583C47.8125 39.8976 48.1856 40.7985 48.8498 41.4627C49.514 42.1269 50.4149 42.5 51.3542 42.5Z" fill="#DAB8A3"/>
<path d="M40.7292 42.5C41.6685 42.5 42.5693 42.1269 43.2335 41.4627C43.8977 40.7985 44.2708 39.8976 44.2708 38.9583V8.85417C44.2708 7.91486 43.8977 7.01402 43.2335 6.34983C42.5693 5.68564 41.6685 5.3125 40.7292 5.3125C39.7899 5.3125 38.889 5.68564 38.2248 6.34983C37.5606 7.01402 37.1875 7.91486 37.1875 8.85417V38.9583C37.1875 39.8976 37.5606 40.7985 38.2248 41.4627C38.889 42.1269 39.7899 42.5 40.7292 42.5Z" fill="#DAB8A3"/>
<path d="M30.1042 42.5C31.0435 42.5 31.9443 42.1269 32.6085 41.4627C33.2727 40.7985 33.6458 39.8976 33.6458 38.9583V14.1667C33.6458 13.2274 33.2727 12.3265 32.6085 11.6623C31.9443 10.9981 31.0435 10.625 30.1042 10.625C29.1649 10.625 28.264 10.9981 27.5998 11.6623C26.9356 12.3265 26.5625 13.2274 26.5625 14.1667V38.9583C26.5625 39.8976 26.9356 40.7985 27.5998 41.4627C28.264 42.1269 29.1649 42.5 30.1042 42.5Z" fill="#DAB8A3"/>
<path d="M29.7498 51.3542C29.2802 51.3542 28.8298 51.5407 28.4977 51.8728C28.1656 52.2049 27.979 52.6553 27.979 53.125C27.979 53.5947 28.1656 54.0451 28.4977 54.3772C28.8298 54.7093 29.2802 54.8958 29.7498 54.8958L32.9373 55.4271L33.6457 58.7917C33.6457 59.2613 33.8322 59.7117 34.1643 60.0438C34.4964 60.3759 34.9468 60.5625 35.4165 60.5625C35.8862 60.5625 36.3366 60.3759 36.6687 60.0438C37.0008 59.7117 37.1873 59.2613 37.1873 58.7917L37.8957 55.4271L41.0832 54.8958C41.5528 54.8958 42.0032 54.7093 42.3353 54.3772C42.6674 54.0451 42.854 53.5947 42.854 53.125C42.854 52.6553 42.6674 52.2049 42.3353 51.8728C42.0032 51.5407 41.5528 51.3542 41.0832 51.3542L37.8957 50.8229L37.1873 47.4583C37.1873 46.9887 37.0008 46.5383 36.6687 46.2062C36.3366 45.8741 35.8862 45.6875 35.4165 45.6875C34.9468 45.6875 34.4964 45.8741 34.1643 46.2062C33.8322 46.5383 33.6457 46.9887 33.6457 47.4583L32.9373 50.8229L29.7498 51.3542Z" fill="#DAB8A3"/>
<path d="M80.0415 61.0937L74.0207 59.8541L72.604 53.6562C72.604 53.1866 72.4174 52.7361 72.0853 52.404C71.7532 52.0719 71.3028 51.8854 70.8332 51.8854C70.3635 51.8854 69.9131 52.0719 69.581 52.404C69.2489 52.7361 69.0623 53.1866 69.0623 53.6562L67.6457 59.8541L61.6248 61.0937C61.1552 61.0937 60.7048 61.2803 60.3727 61.6124C60.0406 61.9445 59.854 62.3949 59.854 62.8645C59.854 63.3342 60.0406 63.7846 60.3727 64.1167C60.7048 64.4488 61.1552 64.6354 61.6248 64.6354L67.6457 65.875L69.0623 72.0729C69.0623 72.5425 69.2489 72.993 69.581 73.325C69.9131 73.6571 70.3635 73.8437 70.8332 73.8437C71.3028 73.8437 71.7532 73.6571 72.0853 73.325C72.4174 72.993 72.604 72.5425 72.604 72.0729L74.0207 65.875L80.0415 64.6354C80.5112 64.6354 80.9616 64.4488 81.2937 64.1167C81.6258 63.7846 81.8123 63.3342 81.8123 62.8645C81.8123 62.3949 81.6258 61.9445 81.2937 61.6124C80.9616 61.2803 80.5112 61.0937 80.0415 61.0937Z" fill="#DAB8A3"/>
<path d="M21.25 14.1667C21.2583 13.7524 21.1211 13.3483 20.8623 13.0247C20.6034 12.7012 20.2393 12.4786 19.8333 12.3958L15.2291 11.5104L14.1666 6.72916C14.0838 6.32315 13.8613 5.95903 13.5377 5.70018C13.2142 5.44133 12.8101 5.30414 12.3958 5.31249C11.9815 5.30414 11.5774 5.44133 11.2539 5.70018C10.9303 5.95903 10.7077 6.32315 10.625 6.72916L9.56245 11.5104L4.95829 12.3958C4.55228 12.4786 4.18816 12.7012 3.9293 13.0247C3.67045 13.3483 3.53327 13.7524 3.54162 14.1667C3.53327 14.5809 3.67045 14.985 3.9293 15.3086C4.18816 15.6322 4.55228 15.8547 4.95829 15.9375L9.56245 16.8229L10.625 21.6042C10.7077 22.0102 10.9303 22.3743 11.2539 22.6331C11.5774 22.892 11.9815 23.0292 12.3958 23.0208C12.8101 23.0292 13.2142 22.892 13.5377 22.6331C13.8613 22.3743 14.0838 22.0102 14.1666 21.6042L15.2291 16.8229L19.8333 15.9375C20.2393 15.8547 20.6034 15.6322 20.8623 15.3086C21.1211 14.985 21.2583 14.5809 21.25 14.1667Z" fill="#DAB8A3"/>
</g>
<defs>
<clipPath id="clip0_55534_441">
<rect width="85" height="85" fill="white"/>
</clipPath>
</defs>
</svg>
