<svg width="57" height="57" viewBox="0 0 57 57" fill="none" xmlns="http://www.w3.org/2000/svg">
<path d="M29.6401 3.41992C29.3377 3.41995 29.0478 3.54007 28.834 3.75385C28.6202 3.96764 28.5001 4.25758 28.5001 4.55992V8.77481L24.1315 15.3276L24.1293 15.3298C24.1152 15.3516 24.1018 15.3739 24.0892 15.3966C24.0815 15.4105 24.0741 15.4247 24.067 15.4389C24.0647 15.4448 24.0625 15.4508 24.0603 15.4567C24.0282 15.5202 24.0021 15.5865 23.9824 15.6549C23.9808 15.6608 23.9793 15.6667 23.9779 15.6727C23.9711 15.6985 23.9651 15.7244 23.9601 15.7506C23.9534 15.7845 23.9482 15.8187 23.9445 15.853C23.9445 15.856 23.9445 15.859 23.9445 15.862C23.9416 15.8945 23.9401 15.9272 23.9401 15.9599C23.94 15.9644 23.94 15.9688 23.9401 15.9733V22.7999H5.70006C5.39772 22.8 5.10778 22.9201 4.89399 23.1339C4.68021 23.3476 4.56009 23.6376 4.56006 23.9399V51.2999C4.56009 51.6023 4.68021 51.8922 4.89399 52.106C5.10778 52.3198 5.39772 52.4399 5.70006 52.4399H16.274C17.146 53.4348 18.1968 54.2293 19.3533 54.7511C22.296 56.0789 26.1017 55.7766 29.1124 53.4597C29.2761 53.5415 29.4571 53.5828 29.6401 53.5799H44.4601H51.3001C51.6024 53.5799 51.8923 53.4598 52.1061 53.246C52.3199 53.0322 52.44 52.7423 52.4401 52.4399V15.9599C52.4401 15.7829 52.3989 15.6084 52.3198 15.45L49.0201 8.85051V4.55992C49.02 4.25758 48.8999 3.96764 48.6861 3.75385C48.4723 3.54007 48.1824 3.41995 47.8801 3.41992H29.6401ZM30.7801 5.69992H46.7401V7.97992H30.7801V5.69992ZM30.2501 10.2599H46.0365L43.7565 14.8199H27.2109L30.2501 10.2599ZM47.8801 11.6693L50.1601 16.2293V51.2999H45.6001V16.2293L47.8801 11.6693ZM26.2201 17.0999H43.3201V51.2999H31.212C31.7341 50.5985 32.2092 49.8156 32.6103 48.9264C34.0034 45.839 34.4772 42.2558 34.0509 39.0961C33.6246 35.9365 32.2745 33.0648 29.6668 31.8888C29.0149 31.5946 28.3364 31.4312 27.6428 31.3766C27.1738 31.3397 26.6982 31.3605 26.2201 31.4189V23.9399V17.0999ZM6.84006 25.0799H23.9401V31.9199C23.9403 31.9511 23.9417 31.9823 23.9445 32.0134C23.0628 32.3583 22.1938 32.8171 21.3639 33.3716C18.713 35.1431 16.3378 37.8702 14.9447 40.9575C13.4014 44.378 13.5917 47.6134 14.7844 50.1599H6.84006V25.0799ZM27.4335 33.6611C27.9019 33.6906 28.3379 33.7917 28.7294 33.9684C30.2952 34.6745 31.4266 36.699 31.7909 39.3989C32.1552 42.0989 31.7288 45.3388 30.5329 47.989C28.1648 53.2384 23.4682 54.1075 20.2907 52.6737C17.1131 51.2399 14.6541 47.143 17.0221 41.8949C18.218 39.2446 20.3655 36.7824 22.6308 35.2687C23.7635 34.5118 24.8959 34.0098 25.9417 33.7858C26.4646 33.6738 26.9652 33.6316 27.4335 33.6611Z" fill="#DAB8A3"/>
</svg>
