<svg width="57" height="57" viewBox="0 0 57 57" fill="none" xmlns="http://www.w3.org/2000/svg">
<g clip-path="url(#clip0_55829_596)">
<path d="M43.9375 33.8438V16.625C43.9375 15.9951 43.6873 15.391 43.2419 14.9456C42.7965 14.5002 42.1924 14.25 41.5625 14.25C40.9326 14.25 40.3285 14.5002 39.8831 14.9456C39.4377 15.391 39.1875 15.9951 39.1875 16.625V33.8438C39.1875 34.4736 39.4377 35.0777 39.8831 35.5231C40.3285 35.9685 40.9326 36.2188 41.5625 36.2188C42.1924 36.2188 42.7965 35.9685 43.2419 35.5231C43.6873 35.0777 43.9375 34.4736 43.9375 33.8438Z" fill="#DAB8A3"/>
<path d="M35.7438 46.5499C34.0203 47.9186 31.8883 48.6711 29.6876 48.6874H27.5501C22.2063 48.6874 17.2188 44.6499 16.8626 40.0187L15.4376 22.3249C15.4079 22.0125 15.3166 21.709 15.1689 21.432C15.0212 21.155 14.8201 20.9101 14.5771 20.7113C14.3342 20.5125 14.0543 20.3639 13.7535 20.274C13.4528 20.1841 13.1372 20.1546 12.8251 20.1874C12.5126 20.2171 12.2091 20.3084 11.9321 20.4561C11.6551 20.6038 11.4102 20.8049 11.2114 21.0479C11.0126 21.2908 10.864 21.5707 10.7741 21.8715C10.6842 22.1722 10.6548 22.4878 10.6876 22.7999L12.1126 40.3749C12.7063 47.4999 19.8313 53.4374 27.5501 53.4374H29.6876C33.0276 53.4163 36.2578 52.2417 38.8313 50.1124C39.2996 49.7004 39.587 49.1207 39.6314 48.4986C39.6758 47.8765 39.4738 47.2618 39.0688 46.7874C38.8744 46.5412 38.6309 46.3383 38.3536 46.1915C38.0764 46.0447 37.7716 45.9574 37.4587 45.935C37.1458 45.9127 36.8317 45.9558 36.5364 46.0617C36.2412 46.1676 35.9712 46.3339 35.7438 46.5499Z" fill="#DAB8A3"/>
<path d="M34.4375 28.5C35.0674 28.5 35.6715 28.2498 36.1169 27.8044C36.5623 27.359 36.8125 26.7549 36.8125 26.125V9.5C36.8125 8.87011 36.5623 8.26602 36.1169 7.82062C35.6715 7.37522 35.0674 7.125 34.4375 7.125C33.8076 7.125 33.2035 7.37522 32.7581 7.82062C32.3127 8.26602 32.0625 8.87011 32.0625 9.5V26.125C32.0625 26.7549 32.3127 27.359 32.7581 27.8044C33.2035 28.2498 33.8076 28.5 34.4375 28.5Z" fill="#DAB8A3"/>
<path d="M27.3125 28.5001C27.9424 28.5001 28.5465 28.2499 28.9919 27.8045C29.4373 27.3591 29.6875 26.755 29.6875 26.1251V5.93762C29.6875 5.30773 29.4373 4.70364 28.9919 4.25824C28.5465 3.81284 27.9424 3.56262 27.3125 3.56262C26.6826 3.56262 26.0785 3.81284 25.6331 4.25824C25.1877 4.70364 24.9375 5.30773 24.9375 5.93762V26.1251C24.9375 26.755 25.1877 27.3591 25.6331 27.8045C26.0785 28.2499 26.6826 28.5001 27.3125 28.5001Z" fill="#DAB8A3"/>
<path d="M20.1875 28.5C20.8174 28.5 21.4215 28.2498 21.8669 27.8044C22.3123 27.359 22.5625 26.7549 22.5625 26.125V9.5C22.5625 8.87011 22.3123 8.26602 21.8669 7.82062C21.4215 7.37522 20.8174 7.125 20.1875 7.125C19.5576 7.125 18.9535 7.37522 18.5081 7.82062C18.0627 8.26602 17.8125 8.87011 17.8125 9.5V26.125C17.8125 26.7549 18.0627 27.359 18.5081 27.8044C18.9535 28.2498 19.5576 28.5 20.1875 28.5Z" fill="#DAB8A3"/>
<path d="M19.95 34.4375C19.635 34.4375 19.333 34.5626 19.1103 34.7853C18.8876 35.008 18.7625 35.31 18.7625 35.625C18.7625 35.9399 18.8876 36.2419 19.1103 36.4646C19.333 36.6873 19.635 36.8125 19.95 36.8125L22.0875 37.1687L22.5625 39.425C22.5625 39.7399 22.6876 40.0419 22.9103 40.2646C23.133 40.4873 23.435 40.6125 23.75 40.6125C24.0649 40.6125 24.3669 40.4873 24.5896 40.2646C24.8123 40.0419 24.9375 39.7399 24.9375 39.425L25.4125 37.1687L27.55 36.8125C27.8649 36.8125 28.1669 36.6873 28.3896 36.4646C28.6123 36.2419 28.7375 35.9399 28.7375 35.625C28.7375 35.31 28.6123 35.008 28.3896 34.7853C28.1669 34.5626 27.8649 34.4375 27.55 34.4375L25.4125 34.0812L24.9375 31.825C24.9375 31.51 24.8123 31.208 24.5896 30.9853C24.3669 30.7626 24.0649 30.6375 23.75 30.6375C23.435 30.6375 23.133 30.7626 22.9103 30.9853C22.6876 31.208 22.5625 31.51 22.5625 31.825L22.0875 34.0812L19.95 34.4375Z" fill="#DAB8A3"/>
<path d="M53.675 40.9687L49.6375 40.1375L48.6875 35.9812C48.6875 35.6663 48.5623 35.3642 48.3396 35.1415C48.1169 34.9188 47.8149 34.7937 47.5 34.7937C47.185 34.7937 46.883 34.9188 46.6603 35.1415C46.4376 35.3642 46.3125 35.6663 46.3125 35.9812L45.3625 40.1375L41.325 40.9687C41.01 40.9687 40.708 41.0938 40.4853 41.3165C40.2626 41.5392 40.1375 41.8413 40.1375 42.1562C40.1375 42.4711 40.2626 42.7732 40.4853 42.9959C40.708 43.2186 41.01 43.3437 41.325 43.3437L45.3625 44.175L46.3125 48.3312C46.3125 48.6461 46.4376 48.9482 46.6603 49.1709C46.883 49.3936 47.185 49.5187 47.5 49.5187C47.8149 49.5187 48.1169 49.3936 48.3396 49.1709C48.5623 48.9482 48.6875 48.6461 48.6875 48.3312L49.6375 44.175L53.675 43.3437C53.9899 43.3437 54.2919 43.2186 54.5146 42.9959C54.7373 42.7732 54.8625 42.4711 54.8625 42.1562C54.8625 41.8413 54.7373 41.5392 54.5146 41.3165C54.2919 41.0938 53.9899 40.9687 53.675 40.9687Z" fill="#DAB8A3"/>
<path d="M14.25 9.5C14.2556 9.22219 14.1636 8.95121 13.99 8.73423C13.8164 8.51725 13.5723 8.36801 13.3 8.3125L10.2125 7.71875L9.5 4.5125C9.44448 4.24023 9.29524 3.99606 9.07827 3.82247C8.86129 3.64889 8.59031 3.55689 8.3125 3.5625C8.03469 3.55689 7.76371 3.64889 7.54673 3.82247C7.32975 3.99606 7.18051 4.24023 7.125 4.5125L6.4125 7.71875L3.325 8.3125C3.05273 8.36801 2.80856 8.51725 2.63497 8.73423C2.46139 8.95121 2.36939 9.22219 2.375 9.5C2.36939 9.77781 2.46139 10.0488 2.63497 10.2658C2.80856 10.4827 3.05273 10.632 3.325 10.6875L6.4125 11.2812L7.125 14.4875C7.18051 14.7598 7.32975 15.0039 7.54673 15.1775C7.76371 15.3511 8.03469 15.4431 8.3125 15.4375C8.59031 15.4431 8.86129 15.3511 9.07827 15.1775C9.29524 15.0039 9.44448 14.7598 9.5 14.4875L10.2125 11.2812L13.3 10.6875C13.5723 10.632 13.8164 10.4827 13.99 10.2658C14.1636 10.0488 14.2556 9.77781 14.25 9.5Z" fill="#DAB8A3"/>
</g>
<defs>
<clipPath id="clip0_55829_596">
<rect width="57" height="57" fill="white"/>
</clipPath>
</defs>
</svg>
