<svg width="57" height="57" viewBox="0 0 57 57" fill="none" xmlns="http://www.w3.org/2000/svg">
<path d="M40.2717 41.2012C38.7344 41.2012 37.4836 42.4519 37.4836 43.9892C37.4836 45.5265 38.7344 46.7772 40.2717 46.7772C41.8089 46.7772 43.0597 45.5265 43.0597 43.9892C43.0597 42.4519 41.8089 41.2012 40.2717 41.2012ZM40.2717 44.9185C39.7592 44.9185 39.3423 44.5017 39.3423 43.9892C39.3423 43.4767 39.7592 43.0599 40.2717 43.0599C40.7842 43.0599 41.201 43.4767 41.201 43.9892C41.201 44.5017 40.7842 44.9185 40.2717 44.9185Z" fill="#DAB8A3"/>
<path d="M27.8806 46.1576C26.3433 46.1576 25.0925 47.4084 25.0925 48.9456C25.0925 50.4829 26.3433 51.7337 27.8806 51.7337C29.4178 51.7337 30.6686 50.4829 30.6686 48.9456C30.6686 47.4084 29.4178 46.1576 27.8806 46.1576ZM27.8806 49.875C27.3681 49.875 26.9512 49.4581 26.9512 48.9456C26.9512 48.4331 27.3681 48.0163 27.8806 48.0163C28.3931 48.0163 28.8099 48.4331 28.8099 48.9456C28.8099 49.4581 28.3931 49.875 27.8806 49.875Z" fill="#DAB8A3"/>
<path d="M20.4457 40.5815C18.9085 40.5815 17.6577 41.8323 17.6577 43.3696C17.6577 44.9068 18.9085 46.1576 20.4457 46.1576C21.983 46.1576 23.2338 44.9068 23.2338 43.3696C23.2338 41.8323 21.983 40.5815 20.4457 40.5815ZM20.4457 44.2989C19.9332 44.2989 19.5164 43.8821 19.5164 43.3696C19.5164 42.8571 19.9332 42.4402 20.4457 42.4402C20.9582 42.4402 21.3751 42.8571 21.3751 43.3696C21.3751 43.8821 20.9582 44.2989 20.4457 44.2989Z" fill="#DAB8A3"/>
<path d="M15.4892 47.3967C13.9519 47.3967 12.7012 48.6475 12.7012 50.1848C12.7012 51.722 13.9519 52.9728 15.4892 52.9728C17.0265 52.9728 18.2772 51.722 18.2772 50.1848C18.2772 48.6475 17.0265 47.3967 15.4892 47.3967ZM15.4892 51.1141C14.9767 51.1141 14.5599 50.6973 14.5599 50.1848C14.5599 49.6723 14.9767 49.2554 15.4892 49.2554C16.0017 49.2554 16.4185 49.6723 16.4185 50.1848C16.4185 50.6973 16.0017 51.1141 15.4892 51.1141Z" fill="#DAB8A3"/>
<path d="M47.4243 10.3487H39.9627C40.9932 10.0063 41.9453 9.54099 42.5529 8.90966C44.3486 7.04267 44.5801 2.22321 44.6082 1.27615C44.6186 0.926594 44.4808 0.588809 44.2287 0.346312C43.9765 0.103815 43.633 -0.0207168 43.2848 0.00307445C42.3395 0.0678807 37.5328 0.485961 35.7368 2.35307C35.5398 2.5579 35.3626 2.7999 35.2014 3.06681C35.0499 2.84674 34.8877 2.64576 34.7128 2.47092C32.802 0.559937 27.8621 0.0806437 26.8912 0.00406575C26.5301 -0.0254254 26.1739 0.106665 25.9175 0.36304C25.6611 0.619415 25.5299 0.975292 25.5585 1.33674C25.6351 2.3076 26.1144 7.24749 28.0254 9.15847C28.508 9.64111 29.184 10.0321 29.9402 10.3485H23.145C23.3991 9.86019 23.5437 9.30593 23.5437 8.71846C23.5437 7.176 21.7409 4.76516 20.9658 3.80025C20.7308 3.50757 20.3754 3.33719 19.9998 3.33719C19.6244 3.33719 19.269 3.50757 19.0338 3.80025C18.2586 4.76516 16.4558 7.176 16.4558 8.71846C16.4558 9.30605 16.6004 9.86019 16.8545 10.3485H15.3631C15.6173 9.86019 15.7619 9.30593 15.7619 8.71846C15.7619 7.176 13.9591 4.76516 13.1839 3.80025C12.9488 3.50744 12.5933 3.33719 12.2179 3.33719C11.8423 3.33719 11.487 3.50757 11.2518 3.80025C10.4768 4.76516 8.67396 7.176 8.67396 8.71846C8.67396 9.34149 8.83616 9.9271 9.11967 10.4364C8.66132 10.6182 8.33667 11.0646 8.33667 11.5878V55.7607C8.33667 56.445 8.89155 56.9999 9.5758 56.9999H47.424C48.1082 56.9999 48.6631 56.445 48.6631 55.7607V11.5878C48.6634 10.9035 48.1085 10.3487 47.4243 10.3487ZM19.9997 6.67266C20.6033 7.57487 21.0469 8.40422 21.0653 8.71858C21.0653 9.30618 20.5874 9.78423 19.9997 9.78423C19.4133 9.78423 18.9359 9.30816 18.9339 8.7223C18.9541 8.40273 19.3972 7.57363 19.9997 6.67266ZM10.815 18.4581H12.3088C15.0874 18.4581 17.348 20.7186 17.348 23.4973V27.132C17.348 29.1817 19.0156 30.8494 21.0653 30.8494C23.1151 30.8494 24.7827 29.1817 24.7827 27.132V22.1755C24.7827 21.4922 25.3386 20.9364 26.0218 20.9364H46.1851V36.0096L42.2875 36.9683C41.1771 37.2415 40.003 37.2414 38.8928 36.9683L36.8336 36.4619C35.336 36.0935 33.7526 36.0937 32.255 36.4619L30.1969 36.9682C29.0863 37.2414 27.9124 37.2414 26.8019 36.9682L24.7438 36.462C23.2462 36.0936 21.6627 36.0936 20.1649 36.462L18.1072 36.9682C16.9964 37.2414 15.8225 37.2414 14.7121 36.9682L10.8155 36.0096V18.4581H10.815ZM46.1846 18.4581H26.0213C23.9716 18.4581 22.304 20.1257 22.304 22.1755V27.132C22.304 27.8152 21.7481 28.3711 21.0648 28.3711C20.3816 28.3711 19.8257 27.8152 19.8257 27.132V23.4973C19.8257 19.3521 16.4534 15.9799 12.3083 15.9799H10.8145V12.827H46.1845L46.1846 18.4581ZM37.5224 4.07112C38.1795 3.38799 40.234 2.88169 42.0342 2.62804C41.8512 4.43542 41.4253 6.5065 40.7663 7.19161C40.1094 7.87449 38.0555 8.38067 36.2554 8.63457C36.4393 6.82582 36.8654 4.754 37.5224 4.07112ZM28.2081 2.65431C30.0857 2.94178 32.233 3.49642 32.9599 4.22341C33.3816 4.64496 33.7449 5.54457 34.0322 6.59175C33.883 7.42308 33.7961 8.21686 33.7459 8.84312C32.0906 8.53395 30.4065 8.03533 29.7774 7.4061C29.0501 6.67911 28.4957 4.5317 28.2081 2.65431ZM12.2176 6.67266C12.8212 7.57487 13.2648 8.40422 13.2833 8.71858C13.2833 9.30618 12.8052 9.78423 12.2175 9.78423C11.6311 9.78423 11.1538 9.30816 11.1518 8.7223C11.1722 8.40261 11.6153 7.57351 12.2176 6.67266ZM10.8147 54.5217V38.5618L14.1193 39.3748C15.6171 39.7432 17.2005 39.7432 18.6984 39.3748L20.7561 38.8686C21.8667 38.5954 23.0406 38.5954 24.1511 38.8686L26.2092 39.3748C27.7067 39.7432 29.2902 39.7432 30.7881 39.3748L32.8462 38.8685C33.9565 38.5953 35.1305 38.5953 36.2409 38.8685L38.3001 39.3749C39.0489 39.5589 39.819 39.6511 40.5892 39.6511C41.3595 39.6511 42.1297 39.559 42.8786 39.3749L46.1845 38.5618V54.5217H10.8147Z" fill="#DAB8A3"/>
</svg>
