<svg width="57" height="57" viewBox="0 0 57 57" fill="none" xmlns="http://www.w3.org/2000/svg">
<g clip-path="url(#clip0_55829_612)">
<path d="M12.5819 0C8.13135 0.000868113 4.51074 3.62206 4.51074 8.07229V48.928C4.51074 53.3785 8.13135 56.9997 12.5822 57.0003H50.6807C51.6797 57.0003 52.4893 56.1906 52.4893 55.1917V48.928V42.6643V14.336V1.80857C52.4893 0.80966 51.6797 0 50.6807 0H12.5819ZM12.5822 3.61714H48.8722V14.336V40.8554H12.5819C10.9362 40.8557 9.40516 41.352 8.12788 42.2007V8.07229C8.12788 5.61611 10.1263 3.61743 12.5822 3.61714ZM48.8722 53.3829H12.5825C10.1263 53.3826 8.12788 51.3839 8.12788 48.9277C8.12788 46.4715 10.126 44.4728 12.5822 44.4725H48.8722V47.1191H20.3952C19.3963 47.1191 18.5866 47.9288 18.5866 48.9277C18.5866 49.9266 19.3963 50.7363 20.3952 50.7363H48.8722V53.3829Z" fill="#DAB8A3"/>
<path d="M21.2677 25.3778V32.2255C21.2677 33.2244 22.0773 34.0341 23.0762 34.0341H33.9236C34.9225 34.0341 35.7322 33.2244 35.7322 32.2255V25.3781C38.1218 24.4189 39.7781 22.0755 39.7781 19.3971C39.7781 15.9435 37.0473 13.116 33.6319 12.9604C32.4278 11.3671 30.5518 10.4165 28.5002 10.4165C26.4477 10.4165 24.572 11.3671 23.3682 12.9604C19.9525 13.116 17.2217 15.9438 17.2217 19.3971C17.2217 22.0758 18.8783 24.4189 21.2677 25.3778ZM23.6654 16.5708C23.8023 16.5708 23.9415 16.581 24.0801 16.6012C24.8573 16.7161 25.6175 16.3159 25.9644 15.6122C26.4451 14.6387 27.4171 14.0336 28.5008 14.0336C29.5842 14.0336 30.5562 14.6387 31.0374 15.6127C31.3847 16.3165 32.1483 16.7155 32.9221 16.6012C33.0598 16.581 33.1987 16.5708 33.3356 16.5708C34.8941 16.5708 36.1622 17.8389 36.1622 19.3974C36.1622 20.8168 35.1022 22.0217 33.6967 22.2C32.7933 22.3146 32.1159 23.0834 32.1159 23.9941V30.417H24.8848V24.1136C24.8848 24.1116 24.8851 24.1092 24.8851 24.1075C24.945 23.1546 24.2537 22.3192 23.3066 22.1997C21.8997 22.0223 20.8388 20.8177 20.8388 19.3971C20.8388 17.8386 22.1068 16.5708 23.6654 16.5708Z" fill="#DAB8A3"/>
</g>
<defs>
<clipPath id="clip0_55829_612">
<rect width="57" height="57" fill="white"/>
</clipPath>
</defs>
</svg>
