<svg width="35" height="35" viewBox="0 0 35 35" fill="none" xmlns="http://www.w3.org/2000/svg">
<path d="M32.0831 8.57504C30.9893 9.11426 29.8956 9.30458 28.6126 9.47958C29.8956 8.75004 30.8001 7.65629 31.1643 6.19832C30.0651 6.86332 28.7843 7.36973 27.4204 7.64426L27.3438 7.65739C26.2162 6.54833 24.6751 5.85708 22.9732 5.83411H22.9688C19.8626 5.83411 17.1359 8.57614 17.1359 11.8574C17.1359 12.3966 17.1359 12.7619 17.3251 13.1261C12.3179 12.9315 7.89806 10.57 4.95368 6.95848L4.92962 6.92786C4.46478 7.72192 4.19024 8.67567 4.19024 9.69395C4.19024 9.81317 4.19353 9.93239 4.20118 10.0505L4.20009 10.0341C4.23728 12.0882 5.30368 13.8852 6.90493 14.9352L6.9279 14.9494C6.00915 14.9494 5.10462 14.5852 4.18587 14.2199C4.18587 17.1369 6.19837 19.5136 8.92509 20.0529C8.38587 20.2421 7.83134 20.2421 7.29212 20.2421C6.9279 20.2421 6.56259 20.2421 6.19837 20.0529C6.9279 22.4296 9.1154 24.2529 11.8563 24.2529C9.88759 25.8443 7.35446 26.8068 4.59712 26.8068C4.51946 26.8068 4.44181 26.8057 4.36415 26.8046H4.37618H2.91821C5.50493 28.455 8.64509 29.4613 12.0138 29.5313H12.0324C22.9699 29.5313 28.9932 20.4171 28.9932 12.5705V11.841C30.2477 10.9769 31.2824 9.88645 32.059 8.62098L32.0852 8.57504H32.0831Z" fill="#E5E5DA"/>
</svg>
