<svg width="35" height="35" viewBox="0 0 35 35" fill="none" xmlns="http://www.w3.org/2000/svg">
<path d="M32.0829 8.57504C30.9892 9.11426 29.8954 9.30458 28.6125 9.47958C29.8954 8.75004 30.8 7.65629 31.1642 6.19832C30.065 6.86332 28.7842 7.36973 27.4203 7.64426L27.3437 7.65739C26.2161 6.54833 24.675 5.85708 22.9731 5.83411H22.9687C19.8625 5.83411 17.1357 8.57614 17.1357 11.8574C17.1357 12.3966 17.1357 12.7619 17.325 13.1261C12.3178 12.9315 7.89793 10.57 4.95356 6.95848L4.9295 6.92786C4.46465 7.72192 4.19012 8.67567 4.19012 9.69395C4.19012 9.81317 4.1934 9.93239 4.20106 10.0505L4.19997 10.0341C4.23715 12.0882 5.30356 13.8852 6.90481 14.9352L6.92778 14.9494C6.00903 14.9494 5.1045 14.5852 4.18575 14.2199C4.18575 17.1369 6.19825 19.5136 8.92497 20.0529C8.38575 20.2421 7.83122 20.2421 7.292 20.2421C6.92778 20.2421 6.56247 20.2421 6.19825 20.0529C6.92778 22.4296 9.11528 24.2529 11.8562 24.2529C9.88747 25.8443 7.35434 26.8068 4.597 26.8068C4.51934 26.8068 4.44168 26.8057 4.36403 26.8046H4.37606H2.91809C5.50481 28.455 8.64497 29.4613 12.0137 29.5313H12.0323C22.9698 29.5313 28.9931 20.4171 28.9931 12.5705V11.841C30.2476 10.9769 31.2823 9.88645 32.0589 8.62098L32.0851 8.57504H32.0829Z" fill="#DAB8A3"/>
</svg>
